<svg width="300" height="275" viewBox="0 0 300 275" fill="none" xmlns="http://www.w3.org/2000/svg">
<g filter="url(#filter0_d_0_915)">
<rect x="20" y="10" width="260" height="235" rx="4" fill="white"/>
</g>
<path d="M150.338 66.4655C184.05 66.4656 211.377 93.7925 211.377 127.5C211.377 161.207 184.05 188.535 150.338 188.535C116.626 188.535 89.2987 161.207 89.2987 127.5C89.2989 93.7925 116.626 66.4655 150.338 66.4655Z" stroke="white" stroke-width="40"/>
<path d="M151.385 46.4724C173.347 46.7504 193.204 55.7643 207.64 70.1989L193.499 84.3415C204.567 95.4085 211.377 110.64 211.377 127.5H231.377L231.37 128.548C231.092 150.509 222.077 170.365 207.641 184.8L193.499 170.658C182.431 181.725 167.199 188.535 150.338 188.535V208.535L149.29 208.528C127.327 208.25 107.47 199.236 93.0341 184.8H93.035L107.177 170.658C96.1087 159.591 89.2987 144.359 89.2987 127.5H69.2987C69.2988 105.122 78.3695 84.8633 93.035 70.1989L107.177 84.3415C118.244 73.2748 133.477 66.4655 150.338 66.4655V46.4655L151.385 46.4724Z" stroke="#F3603C" stroke-width="40" stroke-dasharray="502"/>
<path d="M151.385 46.4724C173.347 46.7504 193.204 55.7643 207.64 70.1989L193.499 84.3415C204.567 95.4085 211.377 110.64 211.377 127.5H231.377L231.37 128.548C231.092 150.509 222.077 170.365 207.641 184.8L193.499 170.658C182.431 181.725 167.199 188.535 150.338 188.535V208.535L149.29 208.528C127.327 208.25 107.47 199.236 93.0341 184.8H93.035L107.177 170.658C96.1087 159.591 89.2987 144.359 89.2987 127.5H69.2987C69.2988 105.122 78.3695 84.8633 93.035 70.1989L107.177 84.3415C118.244 73.2748 133.477 66.4655 150.338 66.4655V46.4655L151.385 46.4724Z" stroke="#242D52" stroke-width="40" stroke-dasharray="340"/>
<defs>
<filter id="filter0_d_0_915" x="0" y="0" width="300" height="275" filterUnits="userSpaceOnUse" color-interpolation-filters="sRGB">
<feFlood flood-opacity="0" result="BackgroundImageFix"/>
<feColorMatrix in="SourceAlpha" type="matrix" values="0 0 0 0 0 0 0 0 0 0 0 0 0 0 0 0 0 0 127 0" result="hardAlpha"/>
<feOffset dy="10"/>
<feGaussianBlur stdDeviation="10"/>
<feColorMatrix type="matrix" values="0 0 0 0 0.311766 0 0 0 0 0.336514 0 0 0 0 0.386011 0 0 0 0.03 0"/>
<feBlend mode="normal" in2="BackgroundImageFix" result="effect1_dropShadow_0_915"/>
<feBlend mode="normal" in="SourceGraphic" in2="effect1_dropShadow_0_915" result="shape"/>
</filter>
</defs>
</svg>
